<?xml version="1.0" encoding="UTF-8"?>
<svg id="Layer_1" xmlns="http://www.w3.org/2000/svg" xmlns:xlink="http://www.w3.org/1999/xlink" version="1.1" viewBox="0 0 1353.25 286.57">
  <!-- Generator: Adobe Illustrator 29.3.1, SVG Export Plug-In . SVG Version: 2.1.0 Build 151)  -->
  <defs>
    <style>
      .st0 {
        fill: #3597d3;
      }

      .st1 {
        fill: #1f5caa;
      }

      .st2 {
        fill: url(#linear-gradient);
      }

      .st3 {
        fill: #1d4487;
      }
    </style>
    <linearGradient id="linear-gradient" x1="10.24" y1="107.19" x2="123.26" y2="107.19" gradientUnits="userSpaceOnUse">
      <stop offset="0" stop-color="#3d71b8"/>
      <stop offset=".23" stop-color="#3674ba"/>
      <stop offset=".57" stop-color="#227ec1"/>
      <stop offset=".97" stop-color="#028dcd"/>
      <stop offset="1" stop-color="#008fcf"/>
    </linearGradient>
  </defs>
  <g>
    <path class="st0" d="M493.96,211.42l1.1-.37c1.62-.53,3.17-1.52,4.63-2.98.16-.32.75-.53,1.77-.61.57-.61,1.03-.98,1.4-1.1.37-.12.98-.44,1.86-.95.87-.51,2.1-.96,3.68-1.37l1.28-.61c.32-.25,1-.41,2.01-.49l1.7-.49c1.5-.28,3.05-.43,4.63-.43.12,0,.72.13,1.8.4,1.07.27,1.73.54,1.98.82s.84.74,1.8,1.37c.95.63,1.43,2.22,1.43,4.78,0,1.34-.2,2.64-.61,3.9-.17,0-.51.22-1.03.67-.53.45-.87,1.07-1.01,1.86-.14.79-.38,1.27-.73,1.43s-.66.67-.94,1.52c-.28.85-1.02,2.29-2.19,4.32l-3.35,5.79-.12.48c-.2.98-.79,2.3-1.77,3.96l-.61,1.28-.24.12c-.37,1.3-.69,2.05-.98,2.25l-.43.61c-.28,1.46-.65,2.41-1.1,2.86-.16.08-.28.43-.37,1.03l-.73,1.58c-.28.33-.45.66-.49,1-.04.35-.14.58-.3.7-.17.12-.35.5-.55,1.13-.2.63-.45,1.21-.73,1.74-.28.53-.43.83-.43.91l.24.92v.48c0,.08-.04.33-.12.73-.08.08-.22.17-.4.25-.18.08-.33.23-.45.45-.12.23-.31.42-.55.58l.12,1.1-.12.97v.3l1.4-.42c.08-.28,1.12-1.12,3.1-2.5.37-.37.65-.93.85-1.7.85-.53,1.48-1,1.89-1.4.4-.41.88-.75,1.43-1.03.55-.28.93-.69,1.15-1.22.22-.53,1.23-1.68,3.01-3.47l.61-.97c0-.45.59-1.08,1.77-1.89l.61-.97c.08-.2.47-.43,1.16-.67.24-.73.74-1.47,1.49-2.22.75-.75,1.44-1.67,2.07-2.74.63-1.08,1.39-1.65,2.28-1.73l.61-1.16c-.08-.49.21-1.13.88-1.92.67-.79,1.21-1.5,1.61-2.13.41-.63.92-1.19,1.52-1.68l.37-.85c.16-.77.6-1.34,1.31-1.71.71-.37,1.06-.59,1.06-.67l-.24-.73c0-.08.14-.4.43-.94.28-.55.53-1.16.73-1.83.2-.67.51-1.09.91-1.25.81-1.22,1.37-1.91,1.68-2.07.3-.16.76-.43,1.37-.79v-.85l.49-1.64-.12-.85c0-.37.32-.63.98-.79.12,0,.35-.34.67-1.03.32-.69.61-1.22.85-1.58l.12-.73c.65-.89,1.36-1.44,2.13-1.64l1.1-.85c.41-.32.82-.49,1.22-.49.28,0,.61.08.97.25s1.1.28,2.22.37c1.12.08,1.67,1.34,1.67,3.77,0,.73-.18,1.41-.55,2.04s-.57,1.15-.61,1.55c-.04.4-.57,1.36-1.58,2.86l-.25,1.28-2.13,4.2v.61l.12.79c0,.33-.41.57-1.22.73l-.73.37c.08.17.12.28.12.37l-1.16,4.63c0,.24-.32.67-.97,1.28-.08,0-.14.33-.18.98-.05.65-.17,1.18-.37,1.61-.2.43-.33.84-.39,1.25-.06.4-.24.86-.52,1.37-.28.51-.43.97-.43,1.37v.49c-.32.33-.49.67-.49,1.03v.37l.12.61c0,.16-.18.3-.55.42-.36.12-.55.27-.55.43s.12.47.37.92v.61c0,.24-.15.64-.46,1.19-.3.55-.45,1.11-.45,1.67l-.49,2.01.12,1.22-.24,1.64.49,2.5-.12,1.89c0,.41.19.73.58.98.38.24.66.48.82.73.16.24.41.37.73.37,1.5,0,2.86-.61,4.08-1.83,3.01-3.13,4.55-4.71,4.63-4.75l.79-.48c.29-1.26.48-1.92.58-1.98.1-.06.3-.19.61-.4.31-.2.62-.71.95-1.52l.49-.73.61-1.52c1.02-.2,1.63-.85,1.83-1.95.2-1.1.38-1.73.55-1.89l1.22-.12.43-.73-.43-.43c.62-.57.92-1.01.92-1.34,0-.24.2-.71.61-1.4l.48-1.1c0-.57.25-1.17.77-1.8.51-.63.84-1.19,1.01-1.68v-.55c1.14-1.14,1.72-2.3,1.72-3.47.12-.32.47-1.05,1.04-2.16.57-1.12.86-2.06.86-2.83l-.12-.85c0-.77.55-1.68,1.66-2.74l-.24-1.4c0-.32.26-.72.79-1.19.53-.47.79-.82.79-1.07,0-.16-.08-.45-.24-.85v-.37c0-.69.2-1.52.61-2.5.69-.16,1.03-.37,1.03-.61,0-.37-.23-.69-.7-.97-.47-.28-.7-.51-.7-.67,0-.08.16-.37.49-.85l-.12-1.77c0-.25.22-.57.67-.98-.17-.28-.27-.53-.31-.73-.04-.2-.21-.64-.52-1.31-.31-.67-.46-1.21-.46-1.62l.37-2.01-.12-2.86c0-1.7.79-2.94,2.38-3.71l1.03-.61c.49-.53,1.52-.79,3.1-.79s2.5.71,2.86,2.13l.49.73c.48.77.73,1.75.73,2.92l-.49,3.35.37,2.37c0,.16-.16.45-.49.85l-.37.61c.25,1.26.37,2.09.37,2.5,0,.77-.14,1.3-.43,1.58-.28.28-.47.59-.55.92l-.37,1.15c-.4.37-.63.65-.67.85-.04.2-.12,1.4-.24,3.59,0,.37-.24.69-.73.98-.49.28-.73.55-.73.79,0,.08.04.32.12.73v.55c0,1.54-.55,2.7-1.64,3.47-.98,3.37-1.9,5.58-2.77,6.64-.87,1.05-1.49,2.17-1.86,3.35-.16.16-.53.4-1.1.73-.08.24-.28.87-.61,1.88-.32,1.02-.93,2.31-1.83,3.87-.9,1.56-1.47,2.43-1.7,2.59l-.62,1.28c-.08.49-.24.73-.48.73-.49,0-.95.2-1.4.61v1.16c0,.16-.18.42-.55.79s-.87,1.26-1.5,2.68c-.63,1.42-1.35,2.38-2.16,2.86-.89.12-1.36.2-1.4.22-.04.02-.12.23-.22.64-.1.41-.17.76-.21,1.07-.04.3-.27.66-.67,1.07-.08-.08-.2-.12-.36-.12-.37,0-.55.16-.55.48v.31l.12.48c0,.57-.87,1.52-2.62,2.86-1.06.49-1.79,1.06-2.2,1.71-.41.65-1.62,1.5-3.62,2.56-2.01,1.05-3.51,1.58-4.48,1.58l-1.16.12-1.95-.48c-1.42-.33-2.41-.77-2.98-1.34s-.98-1.08-1.25-1.55c-.27-.47-.73-.99-1.4-1.58-.67-.59-1-1.72-1-3.38,0-.24-.39-1.12-1.16-2.62.16-1.58.25-2.7.25-3.35v-1.03c0-.49.22-1.23.64-2.22.43-1,.64-1.57.64-1.73v-.37l-.12-1.04c0-.24.18-.84.55-1.8.36-.95.55-1.59.55-1.92s-.16-.49-.49-.49c-.4,0-.63.38-.67,1.16-.04.77-.86,1.78-2.44,3.04l-1.89,2.86c-.08.24-.24.51-.48.79l-.85,1.95c-.08.17-.27.25-.55.25-.08,0-.16-.04-.24-.12l-.62-.12c-.16.08-.27.48-.33,1.19-.06.71-.28,1.23-.64,1.55l-1.16-.37-.12.37v1.03c0,.24-.41.69-1.22,1.34-.41,0-.75.22-1.03.67-.08,0-.12.04-.12.12l-.98-.12-.12.24.12.73c0,.41-.45,1.11-1.34,2.1-.89,1-1.4,1.49-1.52,1.49-.33,0-.57-.04-.73-.12l-.12.12.12,1.03c-.37.49-.84.77-1.41.85-.16.16-.32.37-.48.61l-2.26,2.13c-.41,0-.87.04-1.4.12-.12-.08-.33-.16-.61-.24-.04.08-.11.4-.21.94-.1.55-.56.82-1.37.82l-.43.37c.24.41-.62,1.4-2.59,2.98-1.97,1.58-3.55,2.38-4.72,2.38-.77,0-1.44-.28-2.01-.82-.57-.55-1.05-.97-1.43-1.25s-.72-.7-1-1.25c-.28-.55-.7-1.26-1.25-2.13-.55-.87-.82-1.8-.82-2.77,0-.08.12-.64.36-1.68.25-1.03.45-2.01.61-2.92.16-.91.35-1.44.58-1.58.22-.14.47-.53.76-1.16s.43-.97.43-1l-.12-.92c-.08-.08-.12-.2-.12-.37,0-.24.22-.68.64-1.31.43-.63.72-1.36.88-2.19.16-.83.33-1.35.49-1.55.16-.2.34-.56.55-1.07.2-.51.48-.92.82-1.25.34-.32,1.79-3.19,4.35-8.59.69-1.99,1.36-3.21,2.01-3.68.65-.47,1.02-.82,1.1-1.07-.41-.65-.61-1.02-.61-1.1l1.1-1.77c0-.49.19-.92.58-1.31.38-.39.62-.7.7-.95l.49-.24c.28-1.06.57-1.77.85-2.13,0-.25.05-.41.15-.49s.52-.75,1.25-2.01v-.97l.37-.73.85-.55c.77-1.91,1.28-2.98,1.52-3.23l.36-.61c.25-.33.49-.57.73-.73,1.02-2.72,1.52-4.14,1.52-4.26,0-.24-.28-.48-.85-.73l-.49-.37c-.61.25-.99.37-1.15.37l-1.34-.37c-.69.33-1.36.82-2.01,1.46-1.34.69-2.72,1.04-4.14,1.04-.65,0-1.42.33-2.31,1s-2.4,1.45-4.51,2.35l-.92.48c-.37.73-.73,1.1-1.1,1.1l-2.13-.24c-.33,1.79-1.28,2.84-2.86,3.16-1.02.98-1.83,1.8-2.44,2.47-.61.67-1.31,1.28-2.1,1.83-.8.55-1.27,1.23-1.43,2.04-.2.16-.55.79-1.04,1.89-.48,1.1-1.15,1.85-1.98,2.25-.84.4-1.59.85-2.26,1.34-.67.49-1.13.73-1.37.73-.41,0-.82-.18-1.25-.55-.43-.37-1.06-.67-1.89-.92-.83-.24-1.25-.83-1.25-1.77,0-.65.75-2.01,2.26-4.08,0-.08,1.27-1.07,3.81-2.95s4.04-3.03,4.51-3.44c.47-.4,1.4-.92,2.81-1.55,1.4-.63,2.21-1.05,2.43-1.25s.64-.52,1.25-.94c.61-.43,1.05-.77,1.34-1.04.28-.26.61-.45.98-.58Z"/>
    <path class="st0" d="M575.26,244l1.28-1.04c.98-.08,1.5-.59,1.58-1.52.08-.93.75-1.74,2.01-2.43l.73-1.03c.61-.61,2.27-1.4,4.99-2.38.69-.4,1.15-.77,1.4-1.1.08-.08.16-.12.24-.12l.98.24c.53,0,1.21-.14,2.04-.43s1.63-.43,2.41-.43l2.55-.12c.16,0,.5.12,1,.37.5.24,1.13.37,1.86.37.89,0,1.71.4,2.46,1.22.75.82,1.13,1.57,1.13,2.25,0,1.26-.65,2.54-1.95,3.84-1.3,1.3-2.33,2.03-3.1,2.19-.69.69-1.22,1.13-1.58,1.31-.36.18-.74.47-1.12.85-.38.38-.7.58-.94.58-.16,0-.28-.05-.37-.15s-.2-.15-.36-.15c-.65,0-1.36.79-2.13,2.38l-1.09-.12c-.69.45-1.14.93-1.34,1.46s-.63.79-1.28.79c-1.5,1.5-2.51,2.25-3.04,2.25-.08,0-.37-.08-.85-.24-.32.4-.48.83-.48,1.28,0,.49-.32.77-.97.85l-.79.73-.61-.12-1.22,1.28c-.61,0-1.24.2-1.88.61-.08.49-.2,1.11-.37,1.86-.16.75-.24,1.17-.24,1.25,0,1.18,1.07,1.77,3.22,1.77l2.93-.43c.77,0,1.49-.2,2.16-.61.67-.41,1.39-.61,2.16-.61.24,0,.61-.08,1.09-.24l.61.24c.28-.61.81-1.16,1.58-1.64.77-.49,1.38-.73,1.83-.73l.61-.37c.16-.49.41-.81.73-.98l.49-.43c.32-.32.63-.48.91-.48h.85l.25-.12c.48-1.05,1.16-1.67,2.04-1.86.87-.18,1.42-.48,1.65-.88.22-.41.62-.65,1.18-.73s1.05-.36,1.43-.82.86-.9,1.43-1.31c.57-.4.97-.71,1.19-.91s.42-.3.58-.3c.25,0,.37.18.37.55s.08.55.24.55.25-.08.25-.25-.04-.37-.12-.61v-.43c0-.61.32-1.02.98-1.22l2.74-1.77c.08-.85.32-1.35.7-1.49s.68-.3.88-.48c.2-.18.43-.28.67-.28.53,0,.79.31.79.92l-.3,1.58.3,1.64c0,.24-.19.58-.58,1-.39.43-.68,1.08-.88,1.95-.2.87-.47,1.35-.79,1.43h-.37c-.73.77-1.31,1.23-1.73,1.37-.43.15-.77.4-1,.76l-2.08,2.38c-.4.41-.75.77-1.03,1.1-.28.33-.51.49-.67.49l-.49-.49c0-.08-.08-.12-.24-.12-.41,0-.66.25-.77.73-.1.49-.32.92-.64,1.28-1.22.57-2.01,1.1-2.38,1.58l-.37.12h-1.1c-.53,0-.89.4-1.1,1.19-.2.79-.78,1.25-1.73,1.37-.96.12-1.63.37-2.04.73-.08.08-.27.17-.55.25-.28.08-.85.4-1.71.97l-5.12,1.83c-.41.2-.67.3-.79.3l-1.7.25c-.25,0-.49-.17-.73-.49-.24-.32-.4-.49-.48-.49l-1.1.37c-.81.25-1.58.37-2.31.37-.41,0-.85-.14-1.34-.43-.49-.28-.88-.48-1.16-.61-1.18,0-2.01-.91-2.5-2.74l-.73.12c-.16,0-.71-1.44-1.64-4.32-.24-.32-.63-.56-1.16-.7-.53-.14-.79-.54-.79-1.19,0-1.83.4-3.05,1.19-3.68s1.23-1.1,1.31-1.43l.85-3.17c.16-.12.37-.53.61-1.22l1.4-2.56c.16-.28.53-1,1.1-2.13ZM588.14,240.34l-.73.37c-.16.08-.64.44-1.43,1.07-.79.63-1.56,1.13-2.31,1.52-.75.39-1.52,1.39-2.31,3.01-.79,1.63-1.19,2.56-1.19,2.8s.12.37.37.37l2.07-.92c.77-.37,1.49-.83,2.16-1.4.67-.57,1.63-1.26,2.89-2.07l.48-.49c.08-.16.46-.46,1.13-.88s1.17-.84,1.49-1.25l.61-.25c.69-1.1,1.39-1.77,2.1-2.01.71-.25,1.07-.49,1.07-.73,0-.49-.39-.73-1.16-.73-.32,0-.81.2-1.46.61h-1.4c-.16,0-.61.24-1.34.73l-1.04.24Z"/>
    <path class="st0" d="M638.2,247.71l.98-.85h.37c.28,0,.71-.3,1.28-.92l.61-.24c.82-1.22,1.52-1.93,2.13-2.13l.98-.73c.16-.16.4-.31.7-.43.3-.12.79-.52,1.47-1.19.67-.67,1.21-1,1.62-1s.73.04.98.12c.24-.48.73-.96,1.46-1.43.73-.47,1.32-1.02,1.77-1.67l.79-.37c.65-.33,1.23-.74,1.73-1.25.51-.51,1.17-.76,1.98-.76,1.18,0,2.41.6,3.69,1.8,1.28,1.2,1.92,2.35,1.92,3.44l-1.04,4.75c-.69,3.49-1.46,5.32-2.31,5.48l-.24,1.28c-.57.41-.85.73-.85.97l.37,1.46c0,.2-.23.51-.67.92-.08,0-.12.12-.12.37v2.5c0,.45-.28.81-.85,1.1.08.08.2.16.36.24.25-.24.79-.37,1.65-.37l.97.12,1.34-1.34c.28-.08.68-.28,1.18-.58.51-.3,1.37-.7,2.59-1.19l7.96-6.09c1.1-1.1,1.93-1.65,2.49-1.65.61,0,.91.39.91,1.16,0,.9-.17,1.63-.52,2.22-.35.59-.66,1.3-.95,2.13-.28.83-.62,1.41-1,1.74-.38.32-.7.68-.94,1.07s-.9.94-1.98,1.67c-1.08.73-1.99,1.47-2.74,2.22-.75.75-1.37,1.29-1.86,1.62l-2.61,1.89-.37.61c-.08.08-.45.25-1.12.52s-1.27.6-1.8,1l-1.09.61c-.25.17-.64.27-1.19.31-.55.04-1.03.27-1.43.7-.4.42-.73.64-.97.64l-.92-.12-1.22.37c-.69,0-1.53-.42-2.53-1.25-.99-.83-1.49-1.72-1.49-2.65v-.37l.12-.85c0-.16-.12-.58-.37-1.25-.24-.67-.37-1.04-.37-1.12l.12-.85-.12-.37c0-1.1.08-1.79.25-2.07.16-.28.28-.68.36-1.18.08-.51.16-.92.25-1.25l.3-1.52c.16-.48.37-.81.61-.97.08-.32.24-.87.49-1.65l.24-1.1.61-.85c.32-.33.52-.76.58-1.31.06-.55.27-1.13.64-1.73s.55-.97.55-1.1c0-.49-.24-.73-.73-.73-.16,0-.67.32-1.52.97l-1.1-.37c-.08,0-.31.2-.67.61,0,.16-.18.28-.55.37s-.71.38-1.03.91l-.49.12-.79-.37h-.24c-.41,0-.65.45-.73,1.34-.45.65-1.04,1.08-1.77,1.28l-1.34.37c-.45.16-.77.53-.98,1.1s-.61,1.08-1.22,1.55c-.61.47-1.02.7-1.22.7-1.14,0-1.71-.63-1.71-1.89l.49-2.86-.12-.37ZM664.5,217.27l-.36-2.37v-.37c0-1.91.65-2.96,1.95-3.17.28-.04,1.14-.3,2.56-.79.73.17,1.49.8,2.28,1.92.79,1.12,1.18,2.1,1.18,2.95,0,.08-.06.27-.18.55-.12.28-.2.82-.24,1.61-.04.79-.43,1.48-1.19,2.07-.75.59-1.55.88-2.4.88-.57,0-1.29-.4-2.16-1.19-.87-.79-1.35-1.49-1.43-2.1Z"/>
    <path class="st0" d="M729.57,256.85h.24l.62.24c.08,0,.16-.04.24-.12,0-.69.33-1.28.98-1.77.2-.77.66-1.36,1.37-1.77.71-.41,1.84-1.08,3.39-2.01l1.53-1.34.73-.37.49-.61c.45-.53.87-.79,1.28-.79.61,0,.92.22.92.67l-.55,1.22.25,2.01c0,.73-.26,1.38-.77,1.95s-1.29,1.4-2.35,2.5l-3.11,3.29-1.65.85c-.41.24-.77.53-1.1.85l-2.38,2.01c0,.57-.18,1-.55,1.28h-.98l-.49.24c-.28.77-1.12,1.52-2.5,2.25l-.85.61c-.29.25-.55.37-.79.37l-1.71-.24-1.15.24c-.33,0-.77-.16-1.32-.48-.55-.33-1.11-.58-1.68-.76-.57-.18-1.29-.93-2.16-2.25-.88-1.32-1.35-2.18-1.43-2.59,0-.16-.09-.44-.27-.82-.18-.38-.28-.62-.28-.7s.18-.49.55-1.22v-.12c0-.12-.11-.41-.33-.85-.22-.45-.34-1-.34-1.65,0-.37-.12-.83-.36-1.4.32-.32.48-.57.48-.73s-.06-.4-.18-.7c-.12-.3-.18-.54-.18-.7l.36-2.98-.24-1.52.12-1.46c0-.85-.36-1.28-1.09-1.28-.32,0-.72.22-1.21.67l-.43.12c-1.09.53-1.86.97-2.31,1.31-.44.35-.91.52-1.4.52-.24.25-.71.47-1.39.67l-.49.37c-.16.16-.48.4-.97.73,0,.12-.75.8-2.27,2.04s-2.88,2.41-4.1,3.5-2.09,1.7-2.64,1.8-.82.62-.82,1.55c0,.16-.36.48-1.09.97-.08,0-.5.45-1.27,1.34-.65-.48-1.01-.73-1.09-.73-.53,0-.92.67-1.16,2.01-.25.53-.9.85-1.95.97-.08.04-.23.35-.43.92l-.24.24h-.61c-.08,0-.37.23-.85.7-.49.47-.92.76-1.28.88-.53,1.1-.98,1.64-1.34,1.64-.17,0-.4-.08-.7-.24-.3-.16-.68-.3-1.13-.43-.45-.12-.94-.62-1.49-1.49s-.82-1.62-.82-2.22c0-4.51.87-6.96,2.61-7.37l.12-.24v-.49c0-.53.23-.9.7-1.13s.95-.67,1.43-1.34c.49-.67.81-1.05.98-1.13h.79c.16,0,.24-.43.24-1.28,0-.24.1-.47.31-.67.2-.2.32-.5.37-.88.04-.39.33-1.02.88-1.89.55-.87.82-1.39.82-1.55l-.12-.24c-1.02.93-1.75,1.44-2.19,1.52-.45.08-1.05.67-1.82,1.77l-.98-.18c-1.71,1.26-2.76,1.97-3.17,2.13-.41.17-.86.63-1.35,1.4,0,.24-.14.4-.43.48-.29.08-.82.41-1.59.98h-.37c-1.02,0-1.53-.73-1.53-2.19l1.28-3.47c.37-1.1,1.23-2.02,2.58-2.77,1.36-.75,2.51-1.47,3.44-2.16.93-.69,1.87-1.05,2.8-1.1l.42-.61c1.38-.53,2.31-1.36,2.8-2.5.49-1.14,1.16-1.71,2.01-1.71,2.23,0,3.94.82,5.11,2.47,1.18,1.64,1.76,2.95,1.76,3.93l.12,1.65c0,.57-.12,1.36-.37,2.37-.49.73-.73,1.28-.73,1.65,0,.32.2.48.61.48.24,0,.57-.17.97-.52.41-.35.86-.66,1.37-.95.51-.28.8-.53.88-.73.41-.97,1.12-1.64,2.13-2.01,1.01-.37,1.64-.67,1.88-.92l.61-.48.49-.92c1.1-.49,1.82-.93,2.19-1.34.37-.41.85-.67,1.46-.79.61-.12,1.3-.49,2.07-1.1l.92-.25.85-.48c.08-.08.32-.18.73-.3.41-.12,1.01-.34,1.8-.64.79-.3,1.33-.45,1.61-.45,2.07,0,3.7.83,4.9,2.5,1.2,1.67,1.8,3,1.8,4.02l-.12,1.1.24,1.64v.25l-.48,3.35.12,1.16c0,1.91-.41,3.23-1.22,3.96-.2.08-.3.28-.3.61v.55l1.22,2.56c.37.89.65,1.34.85,1.34l1.95-.55c.57-.17,1.04-.59,1.41-1.28.32-.16.89-.65,1.71-1.46.24-.65.63-.97,1.16-.97Z"/>
    <path class="st0" d="M794.3,256.85h.24l.62.24c.08,0,.16-.04.24-.12,0-.69.33-1.28.98-1.77.2-.77.66-1.36,1.37-1.77.71-.41,1.84-1.08,3.39-2.01l1.53-1.34.73-.37.49-.61c.45-.53.87-.79,1.28-.79.61,0,.92.22.92.67l-.55,1.22.25,2.01c0,.73-.26,1.38-.77,1.95-.51.57-1.29,1.4-2.35,2.5l-3.11,3.29-1.65.85c-.41.24-.77.53-1.1.85l-2.38,2.01c0,.57-.18,1-.55,1.28h-.98l-.49.24c-.28.77-1.12,1.52-2.5,2.25l-.85.61c-.29.25-.55.37-.79.37l-1.71-.24-1.15.24c-.33,0-.77-.16-1.32-.48-.55-.33-1.11-.58-1.68-.76-.57-.18-1.29-.93-2.16-2.25-.88-1.32-1.35-2.18-1.43-2.59,0-.16-.09-.44-.27-.82-.18-.38-.28-.62-.28-.7s.18-.49.55-1.22v-.12c0-.12-.11-.41-.33-.85s-.34-1-.34-1.65c0-.37-.12-.83-.36-1.4.32-.32.48-.57.48-.73s-.06-.4-.18-.7c-.12-.3-.18-.54-.18-.7l.36-2.98-.24-1.52.12-1.46c0-.85-.36-1.28-1.09-1.28-.32,0-.72.22-1.21.67l-.43.12c-1.09.53-1.86.97-2.31,1.31-.44.35-.91.52-1.4.52-.24.25-.71.47-1.39.67l-.49.37c-.16.16-.48.4-.97.73,0,.12-.75.8-2.27,2.04s-2.88,2.41-4.1,3.5-2.09,1.7-2.64,1.8-.82.62-.82,1.55c0,.16-.36.48-1.09.97-.08,0-.5.45-1.27,1.34-.65-.48-1.01-.73-1.09-.73-.53,0-.92.67-1.16,2.01-.25.53-.9.85-1.95.97-.08.04-.23.35-.43.92l-.24.24h-.61c-.08,0-.37.23-.85.7-.49.47-.92.76-1.28.88-.53,1.1-.98,1.64-1.34,1.64-.17,0-.4-.08-.7-.24-.3-.16-.68-.3-1.13-.43-.45-.12-.94-.62-1.49-1.49s-.82-1.62-.82-2.22c0-4.51.87-6.96,2.61-7.37l.12-.24v-.49c0-.53.23-.9.7-1.13s.95-.67,1.43-1.34c.49-.67.81-1.05.98-1.13h.79c.16,0,.24-.43.24-1.28,0-.24.1-.47.31-.67.2-.2.32-.5.37-.88.04-.39.33-1.02.88-1.89.55-.87.82-1.39.82-1.55l-.12-.24c-1.02.93-1.75,1.44-2.19,1.52-.45.08-1.05.67-1.82,1.77l-.98-.18c-1.71,1.26-2.76,1.97-3.17,2.13-.41.17-.86.63-1.35,1.4,0,.24-.14.4-.43.48-.29.08-.82.41-1.59.98h-.37c-1.02,0-1.53-.73-1.53-2.19l1.28-3.47c.37-1.1,1.23-2.02,2.58-2.77,1.36-.75,2.51-1.47,3.44-2.16.93-.69,1.87-1.05,2.8-1.1l.42-.61c1.38-.53,2.31-1.36,2.8-2.5.49-1.14,1.16-1.71,2.01-1.71,2.23,0,3.94.82,5.11,2.47,1.18,1.64,1.76,2.95,1.76,3.93l.12,1.65c0,.57-.12,1.36-.37,2.37-.49.73-.73,1.28-.73,1.65,0,.32.2.48.61.48.24,0,.57-.17.97-.52.41-.35.86-.66,1.37-.95.51-.28.8-.53.88-.73.41-.97,1.12-1.64,2.13-2.01,1.01-.37,1.64-.67,1.88-.92l.61-.48.49-.92c1.1-.49,1.82-.93,2.19-1.34.37-.41.85-.67,1.46-.79.61-.12,1.3-.49,2.07-1.1l.92-.25.85-.48c.08-.08.32-.18.73-.3.41-.12,1.01-.34,1.8-.64.79-.3,1.33-.45,1.61-.45,2.07,0,3.7.83,4.9,2.5,1.2,1.67,1.8,3,1.8,4.02l-.12,1.1.24,1.64v.25l-.48,3.35.12,1.16c0,1.91-.41,3.23-1.22,3.96-.2.08-.3.28-.3.61v.55l1.22,2.56c.37.89.65,1.34.85,1.34l1.95-.55c.57-.17,1.04-.59,1.41-1.28.32-.16.89-.65,1.71-1.46.24-.65.63-.97,1.16-.97Z"/>
    <path class="st0" d="M837.25,262.45l-2.86,2.5c-.16-.16-.33-.25-.49-.25-.4,0-.9.37-1.49,1.1-.59.73-1,1.1-1.25,1.1l-.61-.12c-1.02.77-1.75,1.22-2.2,1.34-.45.12-.98.35-1.61.67-.63.33-1.2.51-1.71.55-.51.04-.93.21-1.25.52-.32.31-1.12.46-2.37.46l-.98-.12c-.53.25-.87.37-1.03.37-.32,0-.67-.17-1.04-.52-.36-.35-.76-.54-1.18-.58-.43-.04-.87-.32-1.32-.85-.45-.53-.86-.89-1.25-1.1-.38-.2-.7-.49-.95-.85l-.85-.73c-.69-.49-1.36-1.38-2.01-2.68-.65-1.3-.98-2.31-.98-3.04v-.25l.12-1.16-.12-1.34c.16-.16.37-.51.61-1.03v-1.95l1.46-4.87c.08-.2-.08-.47-.48-.79-.41.61-.82.98-1.22,1.1-.41.12-.68.41-.83.85-.14.45-.38.67-.7.67l-.74-.24c-.08.08-.27.5-.55,1.25-.28.75-.78,1.13-1.47,1.13-.74,0-1.11-.28-1.11-.85l.12-1.1-.37-1.52c0-.32.33-.97.97-1.92.65-.95,1.25-1.5,1.8-1.64.55-.14,1.02-.53,1.41-1.16.38-.63,1.23-1.39,2.53-2.28.73-.16,1.36-.69,1.89-1.58.57-.45,1.31-.81,2.22-1.1.92-.28,1.61-.7,2.08-1.25.47-.55,1.85-1.4,4.15-2.56,2.3-1.16,3.98-1.74,5.03-1.74.33,0,.77-.09,1.34-.27.57-.18,1.1-.34,1.58-.49.49-.14,1-.37,1.53-.67.53-.3.96-.46,1.28-.46l1.77.61c1.3.37,2.09.63,2.38.79.08.08.5.25,1.25.52.75.27,1.52.62,2.31,1.07.79.45,1.19,1.28,1.19,2.5-.69,1.02-1.04,1.56-1.04,1.64,0,.16.47.41,1.4.73.33.61.81,1.4,1.47,2.38l.67,2.13.12,4.99-.12.49c-.45.41-.67.67-.67.79l.18,1.22-.49,1.7c-.12.53-.32.87-.61,1.03s-.47.37-.55.61l-.37.49c-.08.12-.25.48-.52,1.07-.27.59-.56,1.05-.88,1.37-.32.32-.53.71-.61,1.15-.08.45-.28.77-.61.98s-.56.42-.7.64-.38.42-.7.58ZM818.33,264.03l.25,1.4.12.12h.97l.3.12c.81.16,1.42.24,1.82.24,1.26,0,2.26-.32,3.01-.94.75-.63,1.35-.95,1.79-.95s.82-.3,1.13-.91c.3-.61.49-.92.58-.92h.85l.24-.12c0-.93.42-1.6,1.25-2.01.83-.41,1.42-.95,1.76-1.62s.74-1.18,1.18-1.52c.45-.34.75-.8.91-1.37l.49-.73c.16-.16.24-.47.24-.91l1.15-2.19c.24-1.02.37-1.81.37-2.38,0-.85-.44-1.52-1.31-2.01-.87-.48-1.31-1.44-1.31-2.86,0-.93.48-1.8,1.43-2.59.95-.79,1.43-1.27,1.43-1.43,0-.24-.12-.37-.37-.37-.12,0-.58.16-1.4.49-.28.57-1.72,1.32-4.31,2.25-.85-.41-1.32-.61-1.4-.61-.25,0-.49.25-.73.73-.25.49-.48.83-.73,1.04h-.79c-.08,0-.34.26-.79.79-.45.53-1.02.79-1.7.79l-.73.73c.04.65-.37,1.32-1.22,2.01l-.67.79c-.41.48-.93,1.05-1.58,1.7l-1.1,2.74c-.45,1.05-.67,1.85-.67,2.37-.12.24-.4.5-.82.76-.43.27-.64.6-.64,1,0,.08.14.28.43.61.28.32.42.57.42.73l-.24.79-.24,2.25.61,1.95Z"/>
    <path class="st0" d="M855.88,242.6l.24-.48c1.34,0,2.21-.55,2.62-1.65l.24-.24c1.46-.49,2.5-1.05,3.13-1.68.63-.63,1.77-1.21,3.41-1.73,1.65-.53,2.51-.79,2.59-.79.24,0,.98.37,2.22,1.1,1.24.73,1.85,2.11,1.85,4.14,0,1.46-.4,2.82-1.22,4.08v1.89l-.12.48c-.69.49-1.03,1.04-1.03,1.65v.49l.12,1.77-1.7,3.71c-.69.32-1.04.61-1.04.85,0,.17.17.36.52.58.34.22.52.54.52.94,0,.45-.12,1.28-.37,2.5.08.08.16.12.25.12h.24c.16-.32.49-.57.97-.73l.61-.43c.08-.45.22-.77.43-.97h.73c.32,0,.48-.32.48-.97,0-.25.89-1.29,2.68-3.14,1.79-1.85,2.87-3.03,3.26-3.56.38-.53.8-.97,1.25-1.31.45-.34.71-.7.79-1.07.08-.37.32-.71.7-1.03.39-.32.7-.66.95-1,.25-.35.59-.66,1.04-.95.45-.28.9-.77,1.37-1.46.47-.69,1.45-1.66,2.95-2.92.24-.2.52-.57.85-1.1.33-.53.92-1.07,1.8-1.61.87-.55,1.71-1.22,2.5-2.01.79-.79,2.14-1.19,4.05-1.19,1.1,0,2.16.52,3.2,1.55,1.03,1.03,1.55,2.1,1.55,3.2,0,.57-.1,1.01-.31,1.31-.2.3-.54.82-1,1.55s-.9,1.1-1.31,1.1l-1.1-.37c-.77.77-1.56,1.16-2.38,1.16l-1.15-.25c-.73.49-1.32.75-1.77.79-.45.04-.82.28-1.12.73-.31.45-.64.7-1.01.76-.36.06-.77.25-1.22.58l-.98.49c-.4,1.02-1.28,1.77-2.61,2.25-.49.49-.93,1.06-1.34,1.7,0,.12-.2.28-.58.49-.38.2-.78.57-1.19,1.1-.4.53-.73.79-.97.79h-.55c-.32.37-.57.93-.73,1.7-.16.77-.83,1.3-2.01,1.58-.16.08-.41.38-.73.88s-.79.9-1.4,1.18c-.24.93-.77,1.69-1.58,2.25l-.73,1.28c-.2.4-.6.8-1.18,1.19-.59.38-.9.62-.95.7-.04.08-.3.62-.79,1.61-.49,1-1.03,1.63-1.62,1.92s-1.17.74-1.73,1.37c-.57.63-1.05.95-1.46.95-1.42,0-2.94-1.16-4.56-3.47-1.63-2.31-2.43-3.78-2.43-4.38,0-2.27.31-4.05.94-5.33.63-1.28,1-2.5,1.13-3.66.12-1.15.35-2.16.67-3.01l.37-1.89.49-.85c.28-.32.52-.87.73-1.64l.3-.98c0-.73-.23-1.1-.67-1.1-.57,0-1.05.37-1.46,1.1l-.24.25c-1.02-.25-1.54-.37-1.58-.37-.28,0-.55.63-.79,1.88-.16.41-.57.67-1.22.79-.65.12-1.36.77-2.13,1.95l-.31.24c-.36.08-.61.17-.73.25-.57.93-.97,1.4-1.22,1.4s-.5-.23-.76-.7c-.27-.47-.6-.82-1.01-1.07-.41-.25-.61-.55-.61-.92,0-.93.91-2.13,2.74-3.59.41-.32.65-.63.73-.92.08-.28.63-.47,1.65-.55.16-.08.45-.51.85-1.28Z"/>
    <path class="st0" d="M942.19,253.07l.97-.85c.61,0,.97-.27,1.09-.82.12-.55.56-.98,1.31-1.31.75-.32,1.45-.98,2.09-1.98.65-.99,1.32-1.49,2.01-1.49.24,0,.52.2.85.61.32.4.49.73.49.97,0,1.34-.41,2.72-1.22,4.14l-.24,1.7-.43.79c-.61.33-1,.67-1.18,1.03-.18.37-.66.82-1.43,1.34l-.61.85c-.9.28-1.49.75-1.8,1.4-.3.65-.73,1.02-1.28,1.1s-1.15.48-1.8,1.22c-.4.2-.9.39-1.46.55l-.12.61c-.41.41-1.05.73-1.92.97-.87.25-1.52.48-1.95.7s-.72.33-.88.33c-.77,0-1.48-.15-2.13-.46-.65-.3-1.32-.5-2.01-.58-.24-.24-.38-.5-.42-.79-.05-.28-.25-.66-.61-1.13-.37-.47-.55-1.11-.55-1.92l.25-1.16c0-.16-.1-.37-.3-.61-.2-.25-.3-.45-.3-.61s.04-.28.12-.37c.08-.08.12-.2.12-.37,0-.2-.04-.43-.12-.67-.08-.24-.12-.45-.12-.61l.36-2.98c0-.24-.08-.37-.24-.37s-.46.2-.88.61c-.43.41-.92.61-1.49.61-.33.24-.59.75-.79,1.52-.33.41-.73.77-1.22,1.1l-.24.37c-.08.28-.39.52-.92.7-.53.18-.89.42-1.1.7l-.61.61-1.16-.12c-.08.08-.31.44-.67,1.07-.37.63-.83,1.15-1.4,1.55l-4.63,3.78c-.49.33-1.2.73-2.13,1.22l-.37.37c-3.25,2.15-5.54,3.23-6.88,3.23-1.1,0-2.38-.3-3.84-.92-1.46-.61-2.25-1.34-2.37-2.19l-.61-2.5c-.37-.57-.55-1.36-.55-2.37,0-.49.04-.81.12-.98v-.37l-.12-2.01c0-.49.39-.73,1.16-.73l-.12-1.65c0-.16.35-.8,1.07-1.92.71-1.12,1.19-1.75,1.43-1.92l.61-.79c-.05-.49.24-1.01.85-1.55.61-.55,1.09-1.11,1.46-1.68.37-.57,1.05-1.2,2.07-1.88l1.83-1.83c1.42-1.42,2.97-2.56,4.64-3.41.24-.08.74-.49,1.49-1.22.75-.73,1.6-1.27,2.56-1.62.95-.34,1.89-.78,2.8-1.31.91-.53,1.63-.79,2.16-.79h.48c.16,0,1.24-.51,3.23-1.52h.37c.16,0,.55.17,1.16.49h.12l.97-.49c.16-.08.37-.12.61-.12,2.52,0,3.9,1.75,4.15,5.23.08.73.28,1.1.61,1.1.41,0,.98-.74,1.74-2.22.75-1.48,2.35-2.22,4.78-2.22,1.75,0,2.62,1.12,2.62,3.35,0,2.64-1.18,5.14-3.53,7.49-.16.33-.28.69-.37,1.1l-.85,2.5v.12c0,.24-.17.58-.52,1s-.52.8-.52,1.13l.12,1.52-.25,1.7c0,.77.14,1.28.42,1.52,1.3-.32,2.24-.86,2.83-1.61.59-.75,1-1.17,1.24-1.25l.61-.24c.37-.61.79-1.12,1.28-1.52ZM921.97,253.07c.16-.89.66-1.57,1.49-2.04.83-.47,1.33-.94,1.49-1.43.77-.57,1.88-1.58,3.32-3.04s2.16-2.36,2.16-2.68c0-.12-.08-.18-.24-.18h-.12l-.48.31-1.1-.12-1.15.12-.85-.43-.79.12-1.22-.24c-.65,0-1.21.13-1.67.4-.47.27-1.36.56-2.68.88-1.32.32-2.5.88-3.56,1.67-1.05.79-1.83,1.19-2.31,1.19-.28.61-1.24,1.48-2.86,2.62-.98.32-1.6,1.03-1.89,2.13-1.06.85-1.58,1.34-1.58,1.46l-.43,1.03c-.32.28-.73.52-1.22.7-.49.18-.77.61-.85,1.28s-.35,1.28-.82,1.83c-.47.55-.7.98-.7,1.31,0,1.99.38,2.98,1.16,2.98.33,0,1-.21,2.04-.64,1.03-.43,1.63-.72,1.79-.88.17-.16.49-.32.98-.48l1.16-.61c.16-.16.35-.26.55-.3.2-.04.4-.17.61-.4.2-.22.57-.47,1.1-.73.53-.26.93-.62,1.22-1.07.69-.4,1.81-1.03,3.35-1.89l1.28-.97c.89-.41,1.44-.75,1.64-1.03s.61-.57,1.22-.85Z"/>
    <path class="st0" d="M967.04,213.8l.85-.25.61-.61h.12l.55.24h.12c.97,0,1.84-.19,2.6-.58.76-.38,1.39-.66,1.91-.82.51-.16.83-.28.95-.37s.22-.12.31-.12l.98.12c.32,0,.76-.58,1.31-1.73.55-1.16,1.16-2,1.85-2.53.69-.53,1.38-1.52,2.07-2.98.16-.2.35-.52.55-.95.21-.43.37-.64.49-.64.61,0,1.09-.38,1.46-1.16,1.22-1.42,2.21-2.13,2.98-2.13,1.02,0,1.72.97,2.13,2.92l.61,2.31s-.1.33-.3.88c-.21.55-.3,1.1-.28,1.65.02.55,0,.91-.06,1.1-.06.18-.09.4-.09.64,0,.33.35.49,1.04.49.25,0,.69-.16,1.34-.49l.37-.12c.4.25.75.37,1.03.37.08,0,.66-.2,1.74-.61,1.08-.4,1.75-.63,2.04-.67.28-.04.77-.2,1.46-.49h.73l.49.18c.16,0,.49-.17,1-.52.51-.34,1.47-.56,2.89-.64l.85-.37h.25c1.34,0,2.01.59,2.01,1.77,0,.24-.19.67-.58,1.28-.38.61-.7,1.3-.95,2.07l-2.8,3.53c-.94,1.22-1.87,1.83-2.8,1.83-.16,0-.67-.55-1.52-1.64,0-.08-.08-.12-.25-.12-.41,0-.83.08-1.28.25-.45.16-.82.24-1.1.24-.12,0-1.19.3-3.22.91l-1.46.25c-.16,0-.55.08-1.16.24l-3.11.61c-1.05.53-1.89,1.52-2.5,2.98,0,.08-.2.27-.61.55l-2.75,4.99c-.89.25-1.48.77-1.77,1.58l-.24.37c-.45.08-.85.33-1.22.76-.37.43-.71.76-1.04,1l-1.1,1.65c-.45.57-.89,1.19-1.34,1.86s-.77,1.38-.98,2.13c-.2.75-.37,1.19-.49,1.31-.12.12-.18.35-.18.67l-.18.48c-.49.49-.73,1.03-.73,1.65l.24.97c-.57,1.95-.85,2.98-.85,3.11,0,.08.04.3.12.67v.37c0,.89-.32,2.01-.98,3.35l.12.97-.36,2.74c0,.37.12,1.03.36,2.01-.16.17-.24.28-.24.37,0,1.14.6,2.39,1.8,3.75,1.2,1.36,1.8,3.48,1.8,6.36,0,.24-.06.6-.18,1.07-.12.47-.21.97-.25,1.52-.04.55-.35,1.08-.95,1.61-.59.53-1.09.79-1.49.79-2.16,0-3.76-1.56-4.82-4.69-1.06-3.13-1.58-5.13-1.58-6.03l.12-2.37-.37-1.22.37-5.36-.25-1.28,1.4-5.24v-1.89c0-.08.28-.4.85-.97,0-.08-.08-.12-.24-.12-.25,0-.57.25-.98.73-.41.49-.92.96-1.53,1.4l-.49.85c-.08-.08-.25-.16-.48-.24-.21.08-.88,1.03-2.01,2.86-.85.12-1.53.61-2.01,1.46-.48.85-1.16,1.28-2.01,1.28l-.24.12c-.17,1.18-.73,1.77-1.71,1.77l-.24.12c-.61,1.38-1.24,2.05-1.89,2.01-.41,1.22-1.4,2.05-2.99,2.5-.24.49-.6.85-1.07,1.1-.47.24-.8.47-1,.67-.21.2-.39.3-.55.3-.53,0-.79-.57-.79-1.7,0-.32.13-.68.4-1.07.26-.38.39-.66.39-.82,0-.08-.2-.32-.61-.73,0-1.26.32-2.05.98-2.37.65-.33,1.14-.79,1.46-1.4.2-.48.61-.83,1.22-1.03.61-.2.92-.47.92-.79,0-.28.53-.85,1.58-1.7,1.06-.85,1.83-1.59,2.32-2.22.48-.63.89-.94,1.22-.94l.25-.25c.08-1.01.47-1.52,1.16-1.52l.61-.37.12-.48.36-.25h.49l.3-.24c.08-1.02.56-1.81,1.43-2.37.87-.57,2.47-2.16,4.79-4.78,2.31-2.61,3.61-4.29,3.9-5.02.28-.73.8-1.72,1.55-2.95.75-1.24,1.17-2.4,1.25-3.5-.08-.16-.21-.33-.37-.49l-2.61,1.28c0-.12-.41-.31-1.22-.55-.61.37-1.06.73-1.34,1.1s-.51.55-.67.55l-.85-.12-2.68.3c-2.4.2-4.2.69-5.42,1.46l-2.49.73h-.55c-.33,0-.81.2-1.46.61l-1.4-.12c-1.3.69-2.25,1.03-2.86,1.03-.08,0-.32-.04-.73-.12l-6.21,1.71c-.49.16-1.58.99-3.29,2.5l-.48.12c-.41,0-.88-.46-1.43-1.37-.55-.91-.82-1.73-.82-2.46,0-4.02,3.45-6.35,10.35-7l2.5-.97h.12l.67.24h.25c.25,0,.63-.15,1.16-.46s1.7-.68,3.53-1.13l2.49-.67.79.12c.41,0,.86-.16,1.37-.49.51-.32,1.28-.56,2.31-.7,1.04-.14,1.76-.29,2.16-.46l.98-.24c.16,0,.5-.14,1-.43s1.17-.43,1.98-.43c.12,0,.42.08.92.25Z"/>
    <path class="st0" d="M992.12,244l1.28-1.04c.98-.08,1.5-.59,1.58-1.52.08-.93.75-1.74,2.01-2.43l.73-1.03c.61-.61,2.27-1.4,4.99-2.38.69-.4,1.16-.77,1.4-1.1.08-.08.16-.12.24-.12l.97.24c.53,0,1.21-.14,2.04-.43s1.63-.43,2.4-.43l2.56-.12c.16,0,.5.12,1,.37.51.24,1.13.37,1.86.37.89,0,1.71.4,2.46,1.22.75.82,1.13,1.57,1.13,2.25,0,1.26-.65,2.54-1.94,3.84-1.3,1.3-2.33,2.03-3.1,2.19-.69.69-1.22,1.13-1.58,1.31-.37.18-.74.47-1.13.85s-.7.58-.94.58c-.16,0-.28-.05-.37-.15s-.2-.15-.37-.15c-.65,0-1.36.79-2.13,2.38l-1.09-.12c-.69.45-1.13.93-1.34,1.46s-.63.79-1.28.79c-1.5,1.5-2.51,2.25-3.04,2.25-.08,0-.37-.08-.85-.24-.33.4-.49.83-.49,1.28,0,.49-.32.77-.97.85l-.79.73-.61-.12-1.22,1.28c-.61,0-1.24.2-1.88.61-.08.49-.2,1.11-.37,1.86-.17.75-.25,1.17-.25,1.25,0,1.18,1.08,1.77,3.23,1.77l2.92-.43c.77,0,1.49-.2,2.16-.61.67-.41,1.39-.61,2.16-.61.25,0,.61-.08,1.1-.24l.61.24c.28-.61.81-1.16,1.58-1.64.77-.49,1.38-.73,1.83-.73l.61-.37c.16-.49.41-.81.73-.98l.49-.43c.32-.32.63-.48.91-.48h.85l.24-.12c.49-1.05,1.17-1.67,2.04-1.86.87-.18,1.42-.48,1.65-.88.22-.41.62-.65,1.18-.73s1.05-.36,1.43-.82c.38-.47.86-.9,1.43-1.31.57-.4.97-.71,1.19-.91s.42-.3.58-.3c.24,0,.37.18.37.55s.08.55.24.55.25-.08.25-.25-.04-.37-.12-.61v-.43c0-.61.32-1.02.97-1.22l2.74-1.77c.08-.85.32-1.35.7-1.49.39-.14.68-.3.88-.48.2-.18.43-.28.67-.28.53,0,.79.31.79.92l-.3,1.58.3,1.64c0,.24-.19.58-.58,1-.38.43-.68,1.08-.88,1.95-.2.87-.47,1.35-.79,1.43h-.37c-.73.77-1.31,1.23-1.74,1.37-.43.15-.76.4-1.01.76l-2.07,2.38c-.41.41-.75.77-1.04,1.1-.28.33-.51.49-.67.49l-.49-.49c0-.08-.08-.12-.24-.12-.41,0-.66.25-.76.73-.1.49-.32.92-.64,1.28-1.22.57-2.01,1.1-2.38,1.58l-.37.12h-1.1c-.53,0-.9.4-1.1,1.19-.2.79-.78,1.25-1.74,1.37-.95.12-1.63.37-2.04.73-.08.08-.27.17-.55.25s-.85.4-1.7.97l-5.12,1.83c-.41.2-.67.3-.8.3l-1.7.25c-.25,0-.49-.17-.73-.49-.25-.32-.41-.49-.49-.49l-1.1.37c-.82.25-1.59.37-2.32.37-.4,0-.85-.14-1.34-.43-.49-.28-.88-.48-1.16-.61-1.18,0-2.01-.91-2.5-2.74l-.73.12c-.17,0-.71-1.44-1.65-4.32-.24-.32-.63-.56-1.16-.7s-.79-.54-.79-1.19c0-1.83.4-3.05,1.19-3.68s1.23-1.1,1.31-1.43l.85-3.17c.16-.12.37-.53.61-1.22l1.4-2.56c.16-.28.53-1,1.1-2.13ZM1005,240.34l-.73.37c-.17.08-.64.44-1.43,1.07-.79.63-1.57,1.13-2.31,1.52-.75.39-1.52,1.39-2.31,3.01-.79,1.63-1.19,2.56-1.19,2.8s.12.37.37.37l2.07-.92c.77-.37,1.49-.83,2.16-1.4.67-.57,1.63-1.26,2.89-2.07l.49-.49c.08-.16.45-.46,1.13-.88.67-.43,1.17-.84,1.49-1.25l.61-.25c.69-1.1,1.39-1.77,2.1-2.01.71-.25,1.07-.49,1.07-.73,0-.49-.38-.73-1.15-.73-.33,0-.82.2-1.47.61h-1.4c-.16,0-.61.24-1.34.73l-1.03.24Z"/>
    <path class="st0" d="M1047.44,254.96l.48.48c.81.82,1.27,1.45,1.37,1.92.1.47.31.95.64,1.46.32.51.49.97.49,1.37,0,.16-.25.54-.73,1.12-.49.59-.88,1.88-1.19,3.87-.3,1.99-1.33,2.98-3.08,2.98-1.5,0-2.58-.38-3.23-1.16-.69,0-1.15-.09-1.37-.27-.23-.18-.59-.82-1.1-1.92-.51-1.1-.93-1.83-1.28-2.19s-.52-.89-.52-1.58c0-.89.33-1.73.98-2.53s1.12-1.62,1.4-2.46c1.26-1.26,2.11-1.91,2.56-1.95.45-.04.82-.12,1.13-.24.3-.12.66-.18,1.07-.18.73,0,1.52.43,2.38,1.28ZM1065.21,213.8l-.62.48-1.65,2.98c-.08.24-.24.51-.49.79l-.8,1.1c-.25.85-.59,1.54-1.04,2.07-.45.53-.73,1.05-.86,1.55-.12.51-.32.9-.58,1.19-.27.28-.56,1.1-.89,2.43l-1.35,4.08-.8,1.03v.73c0,.25-.33.57-.98.98v2.13c-.45.61-.92,1.4-1.4,2.38l-.55,4.08c-.4,3.61-1,5.75-1.77,6.39l-.79.73c-.2.45-.61.67-1.22.67-.32,0-1.03-.55-2.13-1.64l-.73-.25c-.69-.32-1.37-1.1-2.04-2.31-.67-1.22-1.01-2.35-1.01-3.41,0-1.42.19-2.45.58-3.08.38-.63.6-1.1.64-1.43l3.11-8.16c1.21-3.25,2.53-5.93,3.95-8.04l.85-2.37.61-.73.61-2.38c.16-.16.42-.38.79-.67.61-2.03,1.19-3.38,1.76-4.05.57-.67.97-1.47,1.22-2.41.24-.93.55-1.5.91-1.7.36-.2.66-.85.88-1.95.22-1.1.98-1.83,2.28-2.19l-.37-.79v-.12c0-.08.26-.45.78-1.1.52-.65,1.27-2.38,2.24-5.18.97-2.8,2.21-4.2,3.71-4.2.77,0,1.88,1,3.32,3.01,1.44,2.01,2.16,3.5,2.16,4.48,0,1.26-.79,2.82-2.38,4.69-1.58,1.87-2.81,3.63-3.68,5.3-.87,1.67-1.42,2.85-1.64,3.56-.22.71-.44,1.15-.64,1.31Z"/>
  </g>
  <g>
    <g>
      <path class="st3" d="M554.64,11.45v24.27h-43.65v48.3h39.37v24.48h-39.37v59.36h-28.76V11.45h72.42Z"/>
      <path class="st3" d="M604.61,11.45v156.42h-27.95V11.45h27.95Z"/>
      <path class="st3" d="M707,165.01s-13.87,4.08-30.19,4.08c-17.75,0-29.58-4.9-37.13-13.87-8.36-9.99-11.42-25.09-11.42-43.45,0-34.27,10.81-59.77,43.45-59.77,15.5,0,26.52,5.71,33.05,16.11,7.55,12.04,7.75,28.76,7.75,52.02h-56.1c0,18.15,7.14,27.95,23.87,27.95,11.63,0,25.3-4.69,25.3-4.69h1.43v21.62ZM684.77,100.96c0-19.99-3.06-28.76-13.67-28.76s-14.07,8.98-14.69,28.76h28.36Z"/>
      <path class="st3" d="M760.24,54.45l15.71,36.1,16.52-36.1h26.31l-27.95,53.85,29.78,59.56h-32.84l-17.34-39.17-17.75,39.17h-26.52l29.58-56.91-28.35-56.5h32.84Z"/>
      <path class="st3" d="M913.22,155.42c-7.96,10.4-21.01,14.89-36.31,14.89-16.11,0-27.94-4.9-35.49-14.69-7.34-9.38-9.99-23.05-9.99-44.06s2.86-35.29,9.99-44.47c7.96-10.4,20.81-15.1,36.31-15.1s27.33,4.49,35.29,14.69c7.34,9.38,10.2,23.05,10.2,44.47s-2.86,35.09-10,44.26ZM888.94,143.79c3.47-5.3,4.9-14.48,4.9-32.64s-1.43-27.34-4.9-32.64c-2.45-3.67-6.12-6.12-11.63-6.12s-9.38,2.45-11.83,6.12c-3.47,5.3-4.69,14.69-4.69,32.84s1.22,27.13,4.69,32.43c2.45,3.67,6.32,6.12,11.83,6.12s9.18-2.45,11.63-6.12Z"/>
      <path class="st3" d="M974.81,11.45v156.42h-27.95V11.45h27.95Z"/>
      <path class="st3" d="M1080.27,155.42c-7.96,10.4-21.01,14.89-36.31,14.89-16.11,0-27.94-4.9-35.49-14.69-7.34-9.38-9.99-23.05-9.99-44.06s2.85-35.29,9.99-44.47c7.96-10.4,20.81-15.1,36.31-15.1s27.34,4.49,35.29,14.69c7.34,9.38,10.2,23.05,10.2,44.47s-2.86,35.09-9.99,44.26ZM1055.99,143.79c3.47-5.3,4.9-14.48,4.9-32.64s-1.43-27.34-4.9-32.64c-2.45-3.67-6.12-6.12-11.63-6.12s-9.38,2.45-11.83,6.12c-3.47,5.3-4.69,14.69-4.69,32.84s1.22,27.13,4.69,32.43c2.45,3.67,6.32,6.12,11.83,6.12s9.18-2.45,11.63-6.12Z"/>
      <path class="st3" d="M1200.2,54.45v99.14c0,12.44,0,23.66-5.51,33.25-7.54,13.46-23.25,20.19-46.71,20.19-19.18,0-31.82-4.49-31.82-4.49v-23.66h1.43s14.89,6.94,30.6,6.94c11.22,0,18.15-3.67,21.42-9.38,2.85-5.1,2.85-11.22,2.85-19.38v-6.12c-3.47,9.79-12.04,15.5-25.3,15.5-11.62,0-22.03-4.49-28.56-14.07-6.53-9.59-8.77-23.87-8.77-41.61s2.04-33.46,10.2-44.47c6.33-8.57,16.12-13.87,29.38-13.87,14.07,0,23.05,5.92,27.54,16.93l6.53-14.89h16.73ZM1167.97,138.49c3.47-5.3,4.49-13.87,4.49-29.17s-1.02-24.27-4.49-29.58c-2.45-3.88-6.73-6.12-12.24-6.12s-9.59,2.24-12.03,6.12c-3.47,5.3-4.49,14.07-4.49,29.37s1.02,24.07,4.49,29.37c2.65,3.88,6.73,6.12,12.03,6.12s9.59-2.24,12.24-6.12Z"/>
      <path class="st3" d="M1256.28,14.26v26.11h-28.35V14.26h28.35ZM1256.08,54.45v113.42h-27.94V54.45h27.94Z"/>
      <path class="st3" d="M1346.23,166.64s-7.14,2.45-18.97,2.45c-36.52,0-47.33-23.46-47.33-57.53s10.81-58.34,47.33-58.34c11.62,0,18.97,2.45,18.97,2.45v22.64h-1.43s-6.73-2.65-14.28-2.65c-16.11,0-21.21,12.03-21.21,35.29s5.1,35.9,21.21,35.9c7.55,0,14.28-2.86,14.28-2.86h1.43v22.64Z"/>
    </g>
    <path class="st1" d="M263.54,11.45h-64.27c-2.4,0-4.04,2.44-3.13,4.66l76.68,186.83h.6l35.49-86.45-42.25-102.94c-.52-1.27-1.76-2.1-3.13-2.1Z"/>
    <path class="st3" d="M418.56,11.45h-64.27c-1.37,0-2.61.83-3.13,2.1l-42.25,102.94-35.49,86.45h71.57L421.69,16.11c.91-2.22-.72-4.66-3.13-4.66Z"/>
    <path class="st2" d="M87.18,11.45L10.49,198.28c-.91,2.22.72,4.66,3.13,4.66h64.27c1.37,0,2.61-.83,3.13-2.1l42.25-102.94L87.78,11.45h-.6Z"/>
    <path class="st1" d="M236.03,198.28L159.35,11.45h-71.57l35.49,86.45,42.25,102.94c.52,1.27,1.76,2.1,3.13,2.1h64.27c2.4,0,4.04-2.44,3.13-4.66Z"/>
  </g>
</svg>